<svg xmlns="http://www.w3.org/2000/svg" width="19.598" height="16.097" viewBox="0 0 19.598 16.097">
    <g transform="translate(0 -5.274)">
        <path d="M3.745,22.269a.332.332,0,1,0,.414-.519,9.083,9.083,0,0,1-.765-.684L.939,18.611l2.532-2.532a8.96,8.96,0,0,1,9.24-2.169.332.332,0,1,0,.211-.63A9.62,9.62,0,0,0,3,15.61l-3,3,2.925,2.925A9.8,9.8,0,0,0,3.745,22.269Z"
              transform="translate(0 -5.009)"/>
        <path d="M29.3,18.8a9.749,9.749,0,0,0-1.458-1.2.332.332,0,0,0-.37.551,9.075,9.075,0,0,1,1.359,1.118l2.455,2.455-2.532,2.532a9.047,9.047,0,0,1-9.41,2.11.332.332,0,0,0-.224.625,9.708,9.708,0,0,0,10.1-2.265l3-3Z"
              transform="translate(-12.628 -8.195)"/>
        <path d="M22.413,5.371a.332.332,0,0,0-.469,0L6.511,20.8a.332.332,0,1,0,.469.469L22.413,5.84A.332.332,0,0,0,22.413,5.371Z"
              transform="translate(-4.285 0)"/>
    </g>
</svg>