<svg width="390" height="844" viewBox="0 0 390 844" fill="none" xmlns="http://www.w3.org/2000/svg">
<g clip-path="url(#clip0_338_12)">
<rect width="390" height="844" fill="#11172D"/>
<path opacity="0.15" d="M340.368 110.718C346.861 104.648 354.233 99.5899 362.237 95.7128C362.329 95.6618 362.433 95.6351 362.539 95.6351C362.645 95.6351 362.748 95.6618 362.841 95.7128L366.277 89C352.98 93.3559 341.18 101.357 332.224 112.089L340.181 111.258C340.17 111.16 340.181 111.06 340.213 110.967C340.246 110.873 340.298 110.788 340.368 110.718ZM388.792 99.7238C380.374 97.9068 371.819 96.7876 363.216 96.3778C363.211 96.4993 363.173 96.6171 363.107 96.7194C363.041 96.8216 362.949 96.9046 362.841 96.9597C354.981 100.77 347.731 105.722 341.326 111.653C341.267 111.721 341.193 111.775 341.11 111.811C341.027 111.847 340.937 111.864 340.847 111.861C340.751 111.882 340.651 111.882 340.555 111.861C337.577 118.283 335.244 133.038 334.765 136.343L358.925 143.367C359.08 143.406 359.214 143.503 359.3 143.637L388.813 123.374C388.782 123.252 388.782 123.123 388.813 123V99.7238H388.792ZM416.347 95.7128C424.397 99.9411 432.008 104.953 439.069 110.676C439.15 110.749 439.212 110.84 439.252 110.941C439.292 111.041 439.308 111.15 439.299 111.258L446.63 111.986C437.704 101.311 425.957 93.3473 412.723 89L415.743 95.7128C415.837 95.6669 415.94 95.643 416.045 95.643C416.149 95.643 416.253 95.6669 416.347 95.7128ZM327.622 189.546C324.154 180.96 321.849 171.951 320.769 162.757C320.761 162.675 320.77 162.592 320.795 162.514C320.82 162.435 320.861 162.362 320.915 162.3L315 157.562C315 158.268 315 158.975 315 159.64C314.973 173.243 318.706 186.589 325.789 198.212L328.101 189.899C327.999 189.882 327.902 189.84 327.819 189.779C327.736 189.718 327.669 189.638 327.622 189.546ZM390.104 123.312L419.388 143.513C419.427 143.444 419.481 143.384 419.546 143.337C419.61 143.291 419.684 143.258 419.762 143.243L443.964 136.488H444.11C443.86 129.277 439.757 115.02 438.84 111.84C438.772 111.858 438.7 111.858 438.632 111.84C438.472 111.836 438.317 111.777 438.195 111.674C431.2 106.043 423.665 101.115 415.701 96.9597C415.591 96.8918 415.501 96.7968 415.439 96.684C415.377 96.5711 415.345 96.4442 415.347 96.3155C408.099 96.17 393.416 99.0588 390.125 99.7238C390.135 99.7648 390.135 99.8075 390.125 99.8485V122.938C390.129 123.068 390.101 123.196 390.042 123.312H390.104ZM464 157.77L458.272 162.217C458.393 162.378 458.445 162.579 458.418 162.778C458.252 163.609 454.419 183.353 450.691 189.567C450.654 189.642 450.601 189.709 450.537 189.762C450.472 189.816 450.397 189.856 450.316 189.879L453.066 198.337C460.212 186.676 463.982 173.267 463.958 159.598C463.958 159.037 463.958 158.393 463.938 157.77H464ZM408.037 179.986C407.955 179.878 407.912 179.747 407.912 179.612H370.859C370.857 179.753 370.814 179.89 370.734 180.007L354.406 202.265L354.239 202.431C358.55 208.874 371.505 220.949 374.213 223.442C374.279 223.367 374.364 223.308 374.458 223.272C374.552 223.236 374.654 223.223 374.754 223.235C375.004 223.235 399.268 224.461 403.663 223.235C403.805 223.194 403.958 223.2 404.097 223.252C404.236 223.305 404.354 223.401 404.433 223.526C408.599 220.72 421.491 205.902 424.053 202.972L423.928 202.847L408.037 179.986ZM369.964 178.968L359.029 144.593C358.961 144.613 358.889 144.613 358.821 144.593H358.571L334.411 137.59C334.31 137.555 334.217 137.498 334.141 137.423C329.35 142.785 322.935 158.726 321.644 162.072C321.763 162.114 321.867 162.19 321.944 162.289C322.022 162.388 322.069 162.507 322.081 162.633C323.157 171.691 325.434 180.566 328.85 189.027C328.907 189.128 328.937 189.243 328.937 189.359C328.937 189.475 328.907 189.59 328.85 189.692C336.265 195.469 350.115 200.519 353.219 201.704C353.212 201.649 353.212 201.593 353.219 201.538L369.527 179.279C369.629 179.125 369.784 179.014 369.964 178.968ZM449.525 188.943C453.128 182.937 457.044 162.778 457.085 162.57C457.109 162.454 457.161 162.345 457.237 162.255C457.314 162.164 457.412 162.094 457.523 162.051C455.023 154.527 446.38 140.707 444.485 137.735H444.297L420.137 144.552H419.95C419.882 144.571 419.81 144.571 419.742 144.552L408.807 178.968C408.95 179.009 409.074 179.097 409.161 179.217L425.053 202.078C425.064 202.133 425.064 202.189 425.053 202.244C432.301 199.73 446.442 191.417 449.442 189.608C449.391 189.501 449.371 189.382 449.386 189.264C449.401 189.146 449.449 189.035 449.525 188.943ZM404.017 224.565C400.759 225.073 397.46 225.268 394.165 225.147C385.834 225.147 375.421 224.627 374.692 224.586C374.589 224.588 374.487 224.565 374.396 224.518C374.305 224.47 374.228 224.401 374.171 224.315L366.09 230.259C381.275 235.247 397.663 235.247 412.848 230.259L404.392 224.315C404.304 224.444 404.169 224.533 404.017 224.565Z" fill="url(#paint0_linear_338_12)"/>
<path opacity="0.2" d="M276.111 161.369C276.722 167.201 277.917 172.956 279.679 178.548C281.382 184.155 283.281 189.695 285.507 194.941C289.857 205.826 295.183 216.295 301.418 226.218C313.641 246.206 329.982 263.351 349.349 276.511C359.012 283.046 369.449 288.354 380.419 292.313C391.42 296.231 402.798 298.989 414.37 300.542C417.251 300.968 420.165 301.1 423.046 301.395L427.434 301.788C428.874 301.788 430.347 301.788 431.788 301.788L440.562 301.985L449.336 301.624L453.724 301.624C455.197 301.624 456.637 301.362 458.078 301.231L466.819 300.345L469.013 300.116L471.174 299.755L475.495 299.034L484.171 297.624L475.528 299.231L471.207 300.05L469.046 300.477L466.885 300.739L458.143 301.854C456.703 301.854 455.262 302.28 453.789 302.345L449.402 302.608C446.455 302.608 443.541 303.001 440.595 303.099L431.788 303.099C430.347 303.099 428.874 303.099 427.401 303.099L423.014 302.772C420.067 302.509 417.153 302.411 414.239 302.018L405.498 300.706C404.044 300.512 402.601 300.239 401.176 299.886L396.887 298.903L392.566 297.919L388.342 296.641L384.119 295.067L382.024 294.444L379.961 293.624C368.842 289.702 358.26 284.393 348.465 277.822C328.915 264.554 312.464 247.207 300.24 226.972C294.104 216.941 288.888 206.374 284.656 195.4C282.528 189.925 280.76 184.319 279.188 178.68C277.594 173.025 276.563 167.227 276.111 161.369ZM303.055 194.154C301.757 187.635 298.829 181.551 294.547 176.472C290.264 171.392 284.766 167.482 278.566 165.107C279.417 187.269 303.055 194.121 303.055 194.121L303.055 194.154ZM312.517 217.596C310.909 211.149 307.697 205.216 303.18 200.348C298.663 195.481 292.988 191.839 286.685 189.761C288.584 211.891 312.517 217.563 312.517 217.563L312.517 217.596ZM328.101 240.873C325.73 234.679 321.834 229.185 316.773 224.903C311.713 220.621 305.654 217.69 299.159 216.383C303.514 238.054 328.101 240.84 328.101 240.84L328.101 240.873ZM348.76 260.544C345.256 254.905 340.382 250.245 334.595 247.001C328.807 243.756 322.293 242.031 315.66 241.988C324.238 262.544 348.76 260.61 348.76 260.61L348.76 260.544ZM372.267 274.773C367.564 270.077 361.749 266.652 355.365 264.817C348.981 262.982 342.237 262.798 335.762 264.282C348.694 282.281 372.267 274.773 372.267 274.773ZM397.673 283.691C392.13 280.032 385.752 277.839 379.133 277.317C372.515 276.795 365.872 277.962 359.826 280.707C376.065 295.723 397.542 283.691 397.542 283.691L397.673 283.691ZM425.076 289.887C419.093 287.015 412.482 285.708 405.858 286.086C399.234 286.465 392.814 288.517 387.196 292.051C405.301 304.706 424.945 289.887 424.945 289.887L425.076 289.887ZM453.691 288.51C447.274 286.819 440.533 286.782 434.098 288.405C427.663 290.027 421.744 293.255 416.891 297.788C437.19 306.87 453.691 288.51 453.691 288.51ZM480.145 285.559C473.58 284.586 466.877 285.293 460.66 287.615C454.442 289.936 448.914 293.797 444.589 298.837C465.772 305.624 480.145 285.658 480.145 285.658L480.145 285.559ZM506.336 290.608C499.892 289.012 493.149 289.077 486.737 290.797C480.325 292.517 474.452 295.836 469.668 300.444C490.13 309.197 506.5 290.707 506.5 290.707L506.336 290.608ZM492.127 314.738C487.379 310.1 481.534 306.742 475.14 304.976C468.745 303.211 462.008 303.095 455.557 304.64C468.784 322.475 492.127 314.738 492.127 314.738ZM467.212 320.574C463.171 315.305 457.863 311.146 451.783 308.486C445.703 305.826 439.05 304.751 432.443 305.362C443.149 324.902 467.212 320.574 467.212 320.574ZM442.494 322.902C439.336 317.06 434.752 312.115 429.171 308.526C423.589 304.938 417.191 302.822 410.573 302.378C418.103 323.361 442.625 322.902 442.625 322.902L442.494 322.902ZM418.168 322.902C415.718 316.734 411.75 311.286 406.632 307.067C401.515 302.848 395.414 299.995 388.899 298.772C393.843 320.541 418.299 323 418.299 323L418.168 322.902ZM392.697 321.656C391.525 315.117 388.718 308.982 384.539 303.822C380.36 298.662 374.944 294.647 368.797 292.149C369.353 314.509 392.828 321.754 392.828 321.754L392.697 321.656ZM368.469 317.459C368.974 310.84 367.798 304.199 365.05 298.157C362.303 292.115 358.073 286.868 352.754 282.904C347.712 304.608 368.6 317.558 368.6 317.558L368.469 317.459ZM349.349 307.165C350.466 300.621 349.911 293.9 347.736 287.629C345.56 281.358 341.836 275.739 336.908 271.298C329.705 292.346 349.349 307.165 349.349 307.165ZM331.801 295.067C333.426 288.626 333.395 281.877 331.712 275.45C330.029 269.024 326.748 263.129 322.175 258.315C313.336 278.674 331.801 295.067 331.801 295.067ZM315.66 281.691C318.05 275.495 318.836 268.795 317.943 262.214C317.05 255.633 314.507 249.385 310.553 244.053C299.388 263.265 315.66 281.691 315.66 281.691ZM299.29 268.577C302.691 262.874 304.595 256.401 304.824 249.763C305.053 243.124 303.6 236.536 300.6 230.611C286.391 247.529 299.323 268.445 299.323 268.445L299.29 268.577ZM287.34 250.02C290.963 244.452 293.118 238.056 293.604 231.429C294.091 224.802 292.893 218.159 290.123 212.121C275.259 228.48 287.373 249.889 287.373 249.889L287.34 250.02ZM276.896 230.972C280.792 225.601 283.267 219.331 284.091 212.744C284.916 206.158 284.062 199.469 281.611 193.302C265.928 208.842 276.929 230.841 276.929 230.841L276.896 230.972ZM270.348 206.252C274.244 200.881 276.719 194.611 277.543 188.024C278.368 181.438 277.514 174.749 275.063 168.582C259.217 184.122 270.217 206.121 270.217 206.121L270.348 206.252ZM276.111 161.631C276.725 155.8 277.921 150.045 279.679 144.452C281.382 138.846 283.281 133.305 285.507 127.895C289.861 117.043 295.186 106.608 301.418 96.7167C313.652 76.7554 329.991 59.6331 349.349 46.4898C359.023 39.9517 369.47 34.6435 380.452 30.6873C391.457 26.7858 402.834 24.0283 414.403 22.4582C417.284 22.032 420.198 21.9009 423.079 21.6058L427.466 21.2124C428.907 21.2124 430.38 21.2124 431.821 21.2124L440.595 21.2124L449.336 21.573L453.724 21.573C455.197 21.573 456.637 21.8353 458.078 21.9665L466.819 22.8845L469.013 22.95L471.174 23.2779L475.495 23.9992L484.172 25.4417L475.528 23.8024L471.207 22.95L469.046 22.5566L466.885 22.2615L458.143 21.1796C456.703 21.0157 455.262 20.7534 453.789 20.6551L449.402 20.3928C446.455 20.3928 443.542 20.0321 440.595 19.901L431.788 19.901C430.347 19.901 428.874 19.901 427.401 19.901L423.014 20.2616C420.067 20.5239 417.153 20.6223 414.239 21.0157L405.498 22.2943C404.04 22.4835 402.597 22.7682 401.176 23.1467L396.887 24.0975L392.566 25.0811L388.342 26.3597L384.119 27.6383L382.024 28.294L379.961 29.0808C368.846 33.0284 358.266 38.3478 348.465 44.9161C328.887 58.2596 312.434 75.6981 300.24 96.0282C294.104 106.06 288.888 116.627 284.656 127.6C282.59 133.059 280.798 138.618 279.286 144.255C277.652 149.927 276.588 155.748 276.111 161.631ZM278.566 157.927C284.762 155.554 290.258 151.649 294.54 146.575C298.822 141.502 301.752 135.425 303.055 128.912C303.055 128.912 279.417 135.731 278.566 157.927ZM286.685 133.272C292.988 131.194 298.663 127.552 303.18 122.685C307.697 117.818 310.909 111.884 312.517 105.438C312.517 105.438 288.584 111.142 286.685 133.272ZM299.159 106.716C305.661 105.402 311.725 102.462 316.786 98.1677C321.847 93.8739 325.739 88.3669 328.101 82.1601C328.101 82.1601 303.514 84.9796 299.159 106.716ZM315.529 80.947C322.194 80.9152 328.74 79.1863 334.554 75.9229C340.367 72.6595 345.256 67.9689 348.76 62.2922C348.76 62.2922 324.238 60.4563 315.66 80.947L315.529 80.947ZM335.5 58.7187C342.011 60.2536 348.805 60.0987 355.239 58.2685C361.674 56.4382 367.535 52.9934 372.267 48.2602C372.267 48.2602 348.695 40.7524 335.631 58.7187L335.5 58.7187ZM359.564 42.3261C365.628 45.0951 372.295 46.2741 378.938 45.7522C385.582 45.2302 391.984 43.0246 397.542 39.3426C397.542 39.3426 376.065 27.3104 359.695 42.2933L359.564 42.3261ZM387.065 30.9824C392.683 34.5165 399.104 36.5685 405.727 36.9468C412.351 37.3252 418.963 36.0177 424.945 33.1462C424.945 33.1462 405.302 18.3273 387.065 30.9824ZM416.891 25.1466C421.744 29.6794 427.663 32.9075 434.098 34.5299C440.533 36.1524 447.274 36.1162 453.691 34.4248C453.691 34.4248 437.19 16.1635 416.891 25.1466ZM444.589 24.0647C448.914 29.1046 454.442 32.9656 460.66 35.2875C466.877 37.6093 473.581 38.3164 480.145 37.3427C480.145 37.3427 465.772 17.3765 444.589 24.0647ZM469.832 22.5566C474.626 27.1475 480.503 30.4482 486.914 32.1508C493.326 33.8534 500.064 33.9026 506.5 32.2938C506.5 32.2938 490.13 13.8357 469.832 22.5566ZM455.557 18.3601C462.008 19.9053 468.745 19.7897 475.14 18.024C481.534 16.2583 487.379 12.9001 492.127 8.26226C492.127 8.26226 468.784 0.524959 455.557 18.3601ZM432.639 17.6388C439.214 18.2154 445.828 17.1239 451.871 14.4651C457.913 11.8064 463.189 7.66612 467.212 2.4265C467.212 2.4265 443.149 -1.90114 432.574 17.6388L432.639 17.6388ZM410.769 20.6223C417.386 20.1572 423.777 18.0222 429.347 14.4163C434.917 10.8104 439.485 5.85103 442.625 0.0003955C442.625 0.0003955 418.103 -0.360243 410.704 20.6223L410.769 20.6223ZM389.095 24.1631C395.602 22.927 401.692 20.0637 406.798 15.8393C411.903 11.6149 415.86 6.16644 418.299 0.000394436C418.299 0.000394436 393.843 2.45928 389.03 24.1631L389.095 24.1631ZM368.993 30.7201C375.141 28.2226 380.557 24.2068 384.736 19.0472C388.915 13.8877 391.721 7.75239 392.893 1.21345C392.893 1.21345 369.353 8.49175 368.993 30.7201ZM352.951 40.0311C358.274 36.0639 362.507 30.8112 365.255 24.7629C368.003 18.7146 369.176 12.0679 368.666 5.44273C368.666 5.44273 347.712 18.4257 352.885 40.0311L352.951 40.0311ZM336.974 51.7354C341.889 47.2869 345.602 41.6658 347.765 35.3948C349.929 29.1239 350.474 22.4069 349.349 15.8684C349.349 15.8684 329.705 30.6873 336.908 51.7354L336.974 51.7354ZM322.241 64.8495C326.808 60.0391 330.086 54.1496 331.769 47.7293C333.452 41.3091 333.485 34.5668 331.866 28.1301C331.866 28.1301 313.336 44.2932 322.175 64.6856L322.241 64.8495ZM310.618 79.111C314.59 73.7551 317.137 67.4757 318.019 60.8631C318.901 54.2504 318.089 47.5218 315.66 41.3097C315.66 41.3097 299.388 59.7678 310.553 78.9471L310.618 79.111ZM300.796 92.6841C303.796 86.7598 305.25 80.1712 305.021 73.5327C304.792 66.8942 302.888 60.4218 299.487 54.7189C299.487 54.7189 286.391 75.4063 300.633 92.5202L300.796 92.6841ZM290.32 111.175C293.084 105.141 294.278 98.5041 293.792 91.8831C293.305 85.2621 291.153 78.872 287.537 73.3081C287.537 73.3081 275.259 94.5529 290.156 111.011L290.32 111.175ZM281.807 130.026C284.265 123.855 285.121 117.16 284.297 110.567C283.472 103.974 280.994 97.698 277.093 92.3235C277.093 92.3235 265.928 114.158 281.644 129.862L281.807 130.026ZM275.259 154.746C277.717 148.575 278.573 141.88 277.749 135.287C276.924 128.694 274.446 122.418 270.545 117.043C270.545 117.043 259.217 138.911 274.932 154.583L275.259 154.746Z" fill="#4070B4"/>
<g opacity="0.2">
<path d="M143.615 852.829C143.165 848.542 142.284 844.31 140.987 840.199C139.734 836.077 138.336 832.004 136.697 828.148C133.494 820.145 129.574 812.449 124.983 805.153C115.984 790.458 103.954 777.853 89.6957 768.179C82.5816 763.374 74.898 759.471 66.8217 756.561C58.723 753.68 50.346 751.653 41.8266 750.511C39.7055 750.198 37.5603 750.101 35.4392 749.884L32.2094 749.595C31.1488 749.595 30.0642 749.595 29.0036 749.595L22.544 749.45L16.0843 749.716L12.8545 749.716C11.7698 749.716 10.7093 749.908 9.64872 750.005L3.21315 750.656L1.59823 750.824L0.007413 751.089L-3.17422 751.62L-9.56158 752.656L-3.19832 751.475L-0.0166908 750.872L1.57412 750.559L3.16494 750.366L9.60051 749.547C10.6611 749.547 11.7216 749.233 12.8062 749.185L16.0361 748.992C18.2054 748.992 20.3506 748.703 22.5199 748.631L29.0036 748.631C30.0642 748.631 31.1488 748.631 32.2335 748.631L35.4633 748.872C37.6326 749.065 39.7778 749.137 41.923 749.426L48.3586 750.39C49.4293 750.533 50.4915 750.734 51.5402 750.993L54.6977 751.716L57.8794 752.439L60.9887 753.379L64.098 754.536L65.6406 754.994L67.1591 755.597C75.3453 758.481 83.1357 762.384 90.3465 767.214C104.739 776.969 116.851 789.722 125.851 804.599C130.368 811.974 134.208 819.743 137.324 827.81C138.89 831.835 140.192 835.957 141.349 840.103C142.523 844.26 143.282 848.523 143.615 852.829ZM123.778 828.726C124.734 833.519 126.889 837.991 130.042 841.726C133.195 845.46 137.242 848.335 141.807 850.081C141.18 833.788 123.778 828.75 123.778 828.75L123.778 828.726ZM116.812 811.492C117.996 816.232 120.361 820.594 123.686 824.172C127.012 827.751 131.189 830.428 135.829 831.956C134.431 815.686 116.812 811.516 116.812 811.516L116.812 811.492ZM105.339 794.379C107.084 798.933 109.953 802.972 113.678 806.12C117.404 809.268 121.864 811.423 126.646 812.384C123.44 796.452 105.339 794.403 105.339 794.403L105.339 794.379ZM90.1295 779.917C92.7094 784.063 96.2971 787.489 100.558 789.874C104.819 792.26 109.615 793.527 114.498 793.559C108.183 778.447 90.1295 779.869 90.1295 779.869L90.1295 779.917ZM72.8234 769.456C76.2859 772.909 80.5671 775.427 85.267 776.776C89.967 778.125 94.9321 778.26 99.6985 777.169C90.1777 763.936 72.8234 769.456 72.8234 769.456ZM54.1192 762.9C58.2 765.59 62.8959 767.202 67.7684 767.586C72.6409 767.969 77.5312 767.112 81.9826 765.093C70.0274 754.054 54.2157 762.9 54.2157 762.9L54.1192 762.9ZM33.9448 758.344C38.3494 760.456 43.2169 761.417 48.0933 761.139C52.9698 760.86 57.6963 759.352 61.8323 756.754C48.5032 747.45 34.0412 758.344 34.0412 758.344L33.9448 758.344ZM12.8786 759.357C17.6029 760.6 22.5653 760.627 27.3028 759.434C32.0402 758.241 36.3984 755.868 39.9706 752.536C25.0266 745.859 12.8786 759.357 12.8786 759.357ZM-6.59688 761.526C-1.7644 762.242 3.17065 761.722 7.74793 760.015C12.3252 758.308 16.3955 755.47 19.5793 751.764C3.98445 746.775 -6.59688 761.454 -6.59688 761.454L-6.59688 761.526ZM-25.8795 757.814C-21.1353 758.988 -16.1711 758.94 -11.4504 757.676C-6.72961 756.411 -2.40622 753.971 1.11616 750.583C-13.9484 744.148 -26 757.742 -26 757.742L-25.8795 757.814ZM-15.4187 740.074C-11.9226 743.484 -7.62016 745.953 -2.91239 747.251C1.79538 748.549 6.75519 748.634 11.5047 747.498C1.76695 734.386 -15.4187 740.074 -15.4187 740.074ZM2.92391 735.784C5.89915 739.658 9.80703 742.715 14.2831 744.671C18.7592 746.626 23.6576 747.417 28.5216 746.968C20.6398 732.602 2.92391 735.784 2.92391 735.784ZM21.1219 734.072C23.4468 738.367 26.8212 742.003 30.9305 744.641C35.0397 747.279 39.7501 748.834 44.6226 749.161C39.0788 733.735 21.0255 734.072 21.0255 734.072L21.1219 734.072ZM39.0306 734.072C40.8341 738.607 43.7557 742.612 47.5233 745.714C51.291 748.815 55.7822 750.914 60.5789 751.812C56.9393 735.808 38.9342 734 38.9342 734L39.0306 734.072ZM57.7829 734.988C58.6457 739.796 60.7118 744.306 63.7885 748.1C66.8652 751.893 70.8525 754.845 75.3783 756.681C74.9686 740.243 57.6865 734.916 57.6865 734.916L57.7829 734.988ZM75.6194 738.074C75.2476 742.94 76.1135 747.822 78.1364 752.264C80.1594 756.706 83.2735 760.564 87.1889 763.478C90.9008 747.522 75.5229 738.001 75.5229 738.001L75.6194 738.074ZM89.6957 745.642C88.8735 750.453 89.2822 755.394 90.8837 760.005C92.4852 764.615 95.2274 768.746 98.8549 772.011C104.158 756.537 89.6957 745.642 89.6957 745.642ZM102.615 754.536C101.419 759.272 101.441 764.233 102.68 768.958C103.919 773.683 106.335 778.017 109.701 781.556C116.209 766.588 102.615 754.536 102.615 754.536ZM114.498 764.37C112.738 768.925 112.16 773.851 112.817 778.689C113.475 783.528 115.347 788.121 118.258 792.041C126.477 777.916 114.498 764.37 114.498 764.37ZM126.55 774.012C124.046 778.204 122.644 782.963 122.475 787.843C122.307 792.724 123.377 797.568 125.585 801.923C136.046 789.486 126.525 774.108 126.525 774.108L126.55 774.012ZM135.347 787.654C132.68 791.747 131.094 796.45 130.736 801.322C130.377 806.194 131.259 811.078 133.298 815.517C144.241 803.49 135.323 787.75 135.323 787.75L135.347 787.654ZM143.036 801.658C140.168 805.607 138.346 810.217 137.739 815.059C137.132 819.901 137.76 824.818 139.565 829.353C151.111 817.928 143.012 801.754 143.012 801.754L143.036 801.658ZM147.857 819.832C144.989 823.78 143.167 828.391 142.56 833.233C141.953 838.075 142.581 842.992 144.386 847.527C156.052 836.102 147.953 819.928 147.953 819.928L147.857 819.832ZM143.615 852.636C143.162 856.924 142.282 861.155 140.987 865.267C139.734 869.388 138.336 873.462 136.697 877.439C133.491 885.417 129.571 893.089 124.983 900.361C115.977 915.036 103.947 927.624 89.6957 937.287C82.574 942.094 74.8823 945.996 66.7976 948.905C58.6953 951.773 50.3196 953.801 41.8025 954.955C39.6814 955.268 37.5362 955.365 35.4151 955.581L32.1853 955.871C31.1247 955.871 30.0401 955.871 28.9795 955.871L22.5199 955.871L16.0843 955.606L12.8545 955.606C11.7698 955.606 10.7093 955.413 9.64873 955.316L3.21316 954.641L1.59824 954.593L0.00742189 954.352L-3.17421 953.822L-9.56157 952.761L-3.19831 953.967L-0.0166819 954.593L1.57413 954.882L3.16495 955.099L9.60052 955.895C10.6611 956.015 11.7216 956.208 12.8063 956.28L16.0361 956.473C18.2054 956.473 20.3506 956.738 22.5199 956.835L29.0036 956.835C30.0642 956.835 31.1488 956.835 32.2335 956.835L35.4633 956.57C37.6326 956.377 39.7778 956.305 41.923 956.015L48.3586 955.075C49.4317 954.936 50.4945 954.727 51.5402 954.449L54.6977 953.75L57.8794 953.027L60.9887 952.087L64.098 951.146L65.6406 950.664L67.1591 950.086C75.3419 947.184 83.131 943.273 90.3465 938.444C104.76 928.634 116.873 915.813 125.851 900.867C130.368 893.492 134.208 885.723 137.324 877.656C138.844 873.642 140.164 869.556 141.277 865.411C142.48 861.242 143.263 856.962 143.615 852.636ZM141.807 855.36C137.245 857.104 133.2 859.975 130.047 863.705C126.894 867.435 124.738 871.903 123.778 876.691C123.778 876.691 141.18 871.678 141.807 855.36ZM135.829 873.486C131.189 875.013 127.012 877.691 123.686 881.269C120.361 884.848 117.996 889.21 116.812 893.949C116.812 893.949 134.431 889.755 135.829 873.486ZM126.646 893.009C121.859 893.975 117.395 896.137 113.669 899.294C109.943 902.451 107.078 906.5 105.339 911.063C105.339 911.063 123.44 908.99 126.646 893.009ZM114.594 911.955C109.688 911.978 104.868 913.249 100.588 915.648C96.3086 918.047 92.7094 921.496 90.1295 925.669C90.1295 925.669 108.183 927.019 114.498 911.955L114.594 911.955ZM99.8913 928.297C95.0981 927.168 90.0962 927.282 85.3593 928.628C80.6225 929.973 76.3076 932.506 72.8234 935.986C72.8234 935.986 90.1777 941.505 99.7949 928.297L99.8913 928.297ZM82.1755 940.348C77.7115 938.312 72.8031 937.446 67.9119 937.829C63.0207 938.213 58.3075 939.835 54.2157 942.542C54.2157 942.542 70.0274 951.388 82.079 940.372L82.1755 940.348ZM61.9287 948.688C57.7928 946.09 53.0662 944.581 48.1897 944.303C43.3133 944.025 38.4458 944.986 34.0412 947.097C34.0412 947.097 48.5032 957.992 61.9287 948.688ZM39.9706 952.978C36.3984 949.646 32.0402 947.273 27.3028 946.08C22.5653 944.887 17.603 944.914 12.8786 946.157C12.8786 946.157 25.0266 959.583 39.9706 952.978ZM19.5793 953.774C16.3956 950.068 12.3252 947.23 7.74793 945.523C3.17066 943.816 -1.76439 943.296 -6.59687 944.012C-6.59687 944.012 3.98446 958.691 19.5793 953.774ZM0.995655 954.882C-2.53383 951.507 -6.86046 949.081 -11.5809 947.829C-16.3013 946.577 -21.2618 946.541 -26 947.724C-26 947.724 -13.9484 961.294 0.995655 954.882ZM11.5047 957.968C6.75519 956.832 1.79539 956.917 -2.91238 958.215C-7.62015 959.513 -11.9226 961.982 -15.4187 965.392C-15.4187 965.392 1.76696 971.08 11.5047 957.968ZM28.377 958.498C23.5364 958.074 18.6671 958.877 14.2186 960.831C9.77003 962.786 5.88561 965.83 2.92392 969.682C2.92392 969.682 20.6398 972.864 28.4252 958.498L28.377 958.498ZM44.4779 956.305C39.6068 956.647 34.9016 958.216 30.8008 960.867C26.6999 963.518 23.337 967.164 21.0255 971.466C21.0255 971.466 39.0788 971.731 44.5262 956.305L44.4779 956.305ZM60.4343 953.701C55.6438 954.61 51.1607 956.715 47.4018 959.821C43.6428 962.927 40.7301 966.932 38.9342 971.466C38.9342 971.466 56.9393 969.658 60.4825 953.701L60.4343 953.701ZM75.2337 948.881C70.7078 950.717 66.7206 953.669 63.6439 957.463C60.5672 961.256 58.5011 965.766 57.6383 970.574C57.6383 970.574 74.9686 965.223 75.2337 948.881ZM87.0443 942.035C83.1253 944.952 80.0089 948.814 77.9858 953.26C75.9627 957.707 75.0988 962.594 75.4747 967.464C75.4747 967.464 90.9008 957.919 87.0925 942.035L87.0443 942.035ZM98.8067 933.431C95.1878 936.701 92.4548 940.834 90.8618 945.444C89.2688 950.054 88.8677 954.993 89.6957 959.8C89.6957 959.8 104.158 948.905 98.8549 933.431L98.8067 933.431ZM109.653 923.789C106.291 927.326 103.877 931.656 102.638 936.376C101.399 941.096 101.375 946.053 102.567 950.785C102.567 950.785 116.209 938.902 109.701 923.91L109.653 923.789ZM118.21 913.304C115.286 917.242 113.411 921.859 112.761 926.72C112.112 931.582 112.71 936.528 114.498 941.095C114.498 941.095 126.477 927.525 118.258 913.425L118.21 913.304ZM125.441 903.326C123.232 907.681 122.162 912.525 122.331 917.405C122.499 922.286 123.901 927.044 126.405 931.237C126.405 931.237 136.046 916.028 125.561 903.446L125.441 903.326ZM133.154 889.731C131.119 894.168 130.239 899.047 130.598 903.915C130.956 908.782 132.54 913.48 135.203 917.571C135.203 917.571 144.241 901.952 133.274 889.852L133.154 889.731ZM139.421 875.872C137.612 880.409 136.981 885.331 137.588 890.178C138.195 895.025 140.019 899.639 142.892 903.591C142.892 903.591 151.111 887.538 139.541 875.992L139.421 875.872ZM144.241 857.698C142.432 862.236 141.802 867.157 142.409 872.004C143.016 876.851 144.84 881.466 147.712 885.417C147.712 885.417 156.052 869.34 144.482 857.819L144.241 857.698Z" fill="#4070B4"/>
</g>
</g>
<defs>
<linearGradient id="paint0_linear_338_12" x1="314.979" y1="161.49" x2="446.505" y2="161.49" gradientUnits="userSpaceOnUse">
<stop stop-color="#D6B557"/>
<stop offset="0.01" stop-color="#1F436F"/>
<stop offset="0.05" stop-color="#2B496C"/>
<stop offset="0.13" stop-color="#495A63"/>
<stop offset="0.23" stop-color="#7B7555"/>
<stop offset="0.35" stop-color="#C09A41"/>
<stop offset="0.4" stop-color="#E1AC38"/>
<stop offset="0.42" stop-color="#E4B344"/>
<stop offset="0.49" stop-color="#ECCB69"/>
<stop offset="0.55" stop-color="#F3DD87"/>
<stop offset="0.62" stop-color="#F7EA9C"/>
<stop offset="0.68" stop-color="#FAF2A9"/>
<stop offset="0.74" stop-color="#FBF5AD"/>
<stop offset="0.77" stop-color="#FAF1A6"/>
<stop offset="0.82" stop-color="#F6E693"/>
<stop offset="0.88" stop-color="#EFD374"/>
<stop offset="0.93" stop-color="#E9C155"/>
</linearGradient>
<clipPath id="clip0_338_12">
<rect width="390" height="844" fill="white"/>
</clipPath>
</defs>
</svg>
